<mxfile host="app.diagrams.net" agent="Mozilla/5.0 (Macintosh; Intel Mac OS X 10_15_7) AppleWebKit/537.36 (KHTML, like Gecko) Chrome/136.0.0.0 Safari/537.36" version="27.0.6">
  <diagram name="Pagina-1" id="pbHeLUdg5aoNJNEhqh02">
    <mxGraphModel dx="305" dy="208" grid="1" gridSize="10" guides="1" tooltips="1" connect="1" arrows="1" fold="1" page="1" pageScale="1" pageWidth="827" pageHeight="1169" math="0" shadow="0">
      <root>
        <mxCell id="0" />
        <mxCell id="1" parent="0" />
        <mxCell id="GJoGqRPpnO4u1G5O083d-1" value="" style="edgeStyle=orthogonalEdgeStyle;rounded=0;orthogonalLoop=1;jettySize=auto;html=1;endArrow=none;startFill=0;" edge="1" parent="1" source="GJoGqRPpnO4u1G5O083d-2" target="GJoGqRPpnO4u1G5O083d-9">
          <mxGeometry relative="1" as="geometry" />
        </mxCell>
        <mxCell id="GJoGqRPpnO4u1G5O083d-2" value="" style="ellipse;whiteSpace=wrap;html=1;aspect=fixed;fillColor=#F2FF3D;" vertex="1" parent="1">
          <mxGeometry x="473" y="752" width="14" height="14" as="geometry" />
        </mxCell>
        <mxCell id="GJoGqRPpnO4u1G5O083d-3" value="Id_Encounter&lt;div&gt;&amp;nbsp;+&lt;div&gt;Code_Immunization&lt;br&gt;&lt;/div&gt;&lt;/div&gt;" style="text;html=1;align=center;verticalAlign=middle;resizable=0;points=[];autosize=1;strokeColor=none;fillColor=none;" vertex="1" parent="1">
          <mxGeometry x="415" y="677" width="130" height="60" as="geometry" />
        </mxCell>
        <mxCell id="GJoGqRPpnO4u1G5O083d-4" style="edgeStyle=orthogonalEdgeStyle;rounded=0;orthogonalLoop=1;jettySize=auto;html=1;exitX=1;exitY=1;exitDx=0;exitDy=0;entryX=0;entryY=0.5;entryDx=0;entryDy=0;curved=1;endArrow=classic;startFill=0;endFill=1;" edge="1" parent="1" source="GJoGqRPpnO4u1G5O083d-9" target="GJoGqRPpnO4u1G5O083d-31">
          <mxGeometry relative="1" as="geometry">
            <Array as="points">
              <mxPoint x="685" y="772" />
              <mxPoint x="743" y="772" />
            </Array>
          </mxGeometry>
        </mxCell>
        <mxCell id="GJoGqRPpnO4u1G5O083d-5" style="edgeStyle=orthogonalEdgeStyle;rounded=0;orthogonalLoop=1;jettySize=auto;html=1;exitX=0.5;exitY=1;exitDx=0;exitDy=0;entryX=0.5;entryY=0;entryDx=0;entryDy=0;endArrow=none;startFill=0;" edge="1" parent="1" source="GJoGqRPpnO4u1G5O083d-9" target="GJoGqRPpnO4u1G5O083d-40">
          <mxGeometry relative="1" as="geometry" />
        </mxCell>
        <mxCell id="GJoGqRPpnO4u1G5O083d-6" style="edgeStyle=orthogonalEdgeStyle;rounded=0;orthogonalLoop=1;jettySize=auto;html=1;exitX=0;exitY=0;exitDx=0;exitDy=0;entryX=0.5;entryY=1;entryDx=0;entryDy=0;endArrow=none;startFill=0;curved=1;" edge="1" parent="1" source="GJoGqRPpnO4u1G5O083d-9" target="GJoGqRPpnO4u1G5O083d-42">
          <mxGeometry relative="1" as="geometry">
            <mxPoint x="653" y="632" as="targetPoint" />
          </mxGeometry>
        </mxCell>
        <mxCell id="GJoGqRPpnO4u1G5O083d-7" style="edgeStyle=orthogonalEdgeStyle;rounded=0;orthogonalLoop=1;jettySize=auto;html=1;exitX=0.5;exitY=0;exitDx=0;exitDy=0;entryX=0.5;entryY=1;entryDx=0;entryDy=0;curved=1;endArrow=none;startFill=0;" edge="1" parent="1" source="GJoGqRPpnO4u1G5O083d-9" target="GJoGqRPpnO4u1G5O083d-23">
          <mxGeometry relative="1" as="geometry" />
        </mxCell>
        <mxCell id="GJoGqRPpnO4u1G5O083d-8" style="edgeStyle=orthogonalEdgeStyle;rounded=0;orthogonalLoop=1;jettySize=auto;html=1;exitX=1;exitY=0.5;exitDx=0;exitDy=0;entryX=0;entryY=0.5;entryDx=0;entryDy=0;curved=1;endArrow=none;startFill=0;" edge="1" parent="1" source="GJoGqRPpnO4u1G5O083d-9" target="GJoGqRPpnO4u1G5O083d-124">
          <mxGeometry relative="1" as="geometry">
            <Array as="points">
              <mxPoint x="813" y="759" />
              <mxPoint x="813" y="544" />
              <mxPoint x="913" y="544" />
            </Array>
          </mxGeometry>
        </mxCell>
        <mxCell id="GJoGqRPpnO4u1G5O083d-9" value="" style="ellipse;whiteSpace=wrap;html=1;aspect=fixed;fillColor=#FFFFFF;" vertex="1" parent="1">
          <mxGeometry x="673" y="752" width="14" height="14" as="geometry" />
        </mxCell>
        <mxCell id="GJoGqRPpnO4u1G5O083d-12" style="rounded=0;orthogonalLoop=1;jettySize=auto;html=1;exitX=0.5;exitY=0;exitDx=0;exitDy=0;entryX=0.5;entryY=1;entryDx=0;entryDy=0;endArrow=none;startFill=0;" edge="1" parent="1" source="GJoGqRPpnO4u1G5O083d-13" target="GJoGqRPpnO4u1G5O083d-2">
          <mxGeometry relative="1" as="geometry" />
        </mxCell>
        <mxCell id="GJoGqRPpnO4u1G5O083d-13" value="" style="ellipse;whiteSpace=wrap;html=1;aspect=fixed;fillColor=#FFFFFF;" vertex="1" parent="1">
          <mxGeometry x="471" y="808" width="16" height="16" as="geometry" />
        </mxCell>
        <mxCell id="GJoGqRPpnO4u1G5O083d-14" value="Date" style="text;html=1;align=center;verticalAlign=middle;resizable=0;points=[];autosize=1;strokeColor=none;fillColor=none;" vertex="1" parent="1">
          <mxGeometry x="455" y="816" width="50" height="30" as="geometry" />
        </mxCell>
        <mxCell id="GJoGqRPpnO4u1G5O083d-16" style="edgeStyle=orthogonalEdgeStyle;rounded=0;orthogonalLoop=1;jettySize=auto;html=1;exitX=1;exitY=0.5;exitDx=0;exitDy=0;entryX=0;entryY=0.5;entryDx=0;entryDy=0;endArrow=none;startFill=0;" edge="1" parent="1" source="GJoGqRPpnO4u1G5O083d-17" target="GJoGqRPpnO4u1G5O083d-2">
          <mxGeometry relative="1" as="geometry" />
        </mxCell>
        <mxCell id="GJoGqRPpnO4u1G5O083d-17" value="" style="ellipse;whiteSpace=wrap;html=1;aspect=fixed;fillColor=#FFFFFF;" vertex="1" parent="1">
          <mxGeometry x="383" y="752" width="14" height="14" as="geometry" />
        </mxCell>
        <mxCell id="GJoGqRPpnO4u1G5O083d-18" value="Code_Procedure" style="text;html=1;align=center;verticalAlign=middle;resizable=0;points=[];autosize=1;strokeColor=none;fillColor=none;" vertex="1" parent="1">
          <mxGeometry x="335" y="766" width="110" height="30" as="geometry" />
        </mxCell>
        <mxCell id="GJoGqRPpnO4u1G5O083d-19" style="edgeStyle=orthogonalEdgeStyle;rounded=0;orthogonalLoop=1;jettySize=auto;html=1;entryX=0;entryY=0.5;entryDx=0;entryDy=0;endArrow=none;startFill=0;" edge="1" parent="1" source="GJoGqRPpnO4u1G5O083d-20" target="GJoGqRPpnO4u1G5O083d-17">
          <mxGeometry relative="1" as="geometry" />
        </mxCell>
        <mxCell id="GJoGqRPpnO4u1G5O083d-20" value="" style="ellipse;whiteSpace=wrap;html=1;aspect=fixed;fillColor=#FFFFFF;" vertex="1" parent="1">
          <mxGeometry x="313" y="752" width="14" height="14" as="geometry" />
        </mxCell>
        <mxCell id="GJoGqRPpnO4u1G5O083d-21" value="Description" style="text;html=1;align=center;verticalAlign=middle;resizable=0;points=[];autosize=1;strokeColor=none;fillColor=none;" vertex="1" parent="1">
          <mxGeometry x="280" y="722" width="80" height="30" as="geometry" />
        </mxCell>
        <mxCell id="GJoGqRPpnO4u1G5O083d-22" value="Id_Encounter" style="text;html=1;align=center;verticalAlign=middle;resizable=0;points=[];autosize=1;strokeColor=none;fillColor=none;" vertex="1" parent="1">
          <mxGeometry x="583" y="766" width="90" height="30" as="geometry" />
        </mxCell>
        <mxCell id="GJoGqRPpnO4u1G5O083d-23" value="" style="ellipse;whiteSpace=wrap;html=1;aspect=fixed;fillColor=#FFFFFF;" vertex="1" parent="1">
          <mxGeometry x="741" y="648" width="14" height="14" as="geometry" />
        </mxCell>
        <mxCell id="GJoGqRPpnO4u1G5O083d-24" style="edgeStyle=orthogonalEdgeStyle;rounded=0;orthogonalLoop=1;jettySize=auto;html=1;exitX=1;exitY=0.5;exitDx=0;exitDy=0;entryX=0;entryY=0.5;entryDx=0;entryDy=0;endArrow=classic;startFill=0;endFill=1;" edge="1" parent="1" source="GJoGqRPpnO4u1G5O083d-31" target="GJoGqRPpnO4u1G5O083d-55">
          <mxGeometry relative="1" as="geometry" />
        </mxCell>
        <mxCell id="GJoGqRPpnO4u1G5O083d-25" style="edgeStyle=orthogonalEdgeStyle;rounded=0;orthogonalLoop=1;jettySize=auto;html=1;exitX=0.5;exitY=1;exitDx=0;exitDy=0;entryX=0.5;entryY=0;entryDx=0;entryDy=0;curved=1;endArrow=none;startFill=0;" edge="1" parent="1" source="GJoGqRPpnO4u1G5O083d-31" target="GJoGqRPpnO4u1G5O083d-58">
          <mxGeometry relative="1" as="geometry" />
        </mxCell>
        <mxCell id="GJoGqRPpnO4u1G5O083d-26" style="edgeStyle=orthogonalEdgeStyle;rounded=0;orthogonalLoop=1;jettySize=auto;html=1;exitX=0;exitY=0;exitDx=0;exitDy=0;entryX=1;entryY=1;entryDx=0;entryDy=0;strokeColor=default;curved=1;endArrow=none;startFill=0;" edge="1" parent="1" source="GJoGqRPpnO4u1G5O083d-31" target="GJoGqRPpnO4u1G5O083d-56">
          <mxGeometry relative="1" as="geometry" />
        </mxCell>
        <mxCell id="GJoGqRPpnO4u1G5O083d-27" style="edgeStyle=orthogonalEdgeStyle;rounded=0;orthogonalLoop=1;jettySize=auto;html=1;exitX=0.5;exitY=0;exitDx=0;exitDy=0;entryX=0.5;entryY=1;entryDx=0;entryDy=0;curved=1;endArrow=none;startFill=0;" edge="1" parent="1" source="GJoGqRPpnO4u1G5O083d-31" target="GJoGqRPpnO4u1G5O083d-66">
          <mxGeometry relative="1" as="geometry" />
        </mxCell>
        <mxCell id="GJoGqRPpnO4u1G5O083d-28" style="edgeStyle=orthogonalEdgeStyle;rounded=0;orthogonalLoop=1;jettySize=auto;html=1;exitX=1;exitY=0;exitDx=0;exitDy=0;entryX=0.5;entryY=1;entryDx=0;entryDy=0;curved=1;endArrow=none;startFill=0;" edge="1" parent="1" source="GJoGqRPpnO4u1G5O083d-31" target="GJoGqRPpnO4u1G5O083d-32">
          <mxGeometry relative="1" as="geometry" />
        </mxCell>
        <mxCell id="GJoGqRPpnO4u1G5O083d-29" style="edgeStyle=orthogonalEdgeStyle;rounded=0;orthogonalLoop=1;jettySize=auto;html=1;exitX=0.933;exitY=0.302;exitDx=0;exitDy=0;entryX=0.5;entryY=1;entryDx=0;entryDy=0;curved=1;endArrow=none;startFill=0;exitPerimeter=0;" edge="1" parent="1" source="GJoGqRPpnO4u1G5O083d-31" target="GJoGqRPpnO4u1G5O083d-69">
          <mxGeometry relative="1" as="geometry" />
        </mxCell>
        <mxCell id="GJoGqRPpnO4u1G5O083d-30" style="edgeStyle=orthogonalEdgeStyle;rounded=0;orthogonalLoop=1;jettySize=auto;html=1;exitX=1.014;exitY=0.588;exitDx=0;exitDy=0;entryX=0;entryY=0.5;entryDx=0;entryDy=0;curved=1;endArrow=none;startFill=0;exitPerimeter=0;" edge="1" parent="1" source="GJoGqRPpnO4u1G5O083d-31" target="GJoGqRPpnO4u1G5O083d-70">
          <mxGeometry relative="1" as="geometry" />
        </mxCell>
        <mxCell id="GJoGqRPpnO4u1G5O083d-31" value="" style="ellipse;whiteSpace=wrap;html=1;aspect=fixed;fillColor=#FFFFFF;" vertex="1" parent="1">
          <mxGeometry x="846" y="766" width="14" height="14" as="geometry" />
        </mxCell>
        <mxCell id="GJoGqRPpnO4u1G5O083d-32" value="" style="ellipse;whiteSpace=wrap;html=1;aspect=fixed;fillColor=#FFFFFF;" vertex="1" parent="1">
          <mxGeometry x="883" y="730" width="14" height="14" as="geometry" />
        </mxCell>
        <mxCell id="GJoGqRPpnO4u1G5O083d-33" style="edgeStyle=orthogonalEdgeStyle;rounded=0;orthogonalLoop=1;jettySize=auto;html=1;exitX=0;exitY=0;exitDx=0;exitDy=0;entryX=0.5;entryY=0;entryDx=0;entryDy=0;curved=1;endArrow=none;startFill=0;" edge="1" parent="1" source="GJoGqRPpnO4u1G5O083d-40" target="GJoGqRPpnO4u1G5O083d-93">
          <mxGeometry relative="1" as="geometry" />
        </mxCell>
        <mxCell id="GJoGqRPpnO4u1G5O083d-34" style="edgeStyle=orthogonalEdgeStyle;rounded=0;orthogonalLoop=1;jettySize=auto;html=1;exitX=0;exitY=0.5;exitDx=0;exitDy=0;entryX=0.5;entryY=0;entryDx=0;entryDy=0;curved=1;endArrow=none;startFill=0;" edge="1" parent="1" source="GJoGqRPpnO4u1G5O083d-40" target="GJoGqRPpnO4u1G5O083d-91">
          <mxGeometry relative="1" as="geometry" />
        </mxCell>
        <mxCell id="GJoGqRPpnO4u1G5O083d-35" style="edgeStyle=orthogonalEdgeStyle;rounded=0;orthogonalLoop=1;jettySize=auto;html=1;exitX=0;exitY=1;exitDx=0;exitDy=0;entryX=0.5;entryY=0;entryDx=0;entryDy=0;curved=1;endArrow=none;startFill=0;" edge="1" parent="1" source="GJoGqRPpnO4u1G5O083d-40" target="GJoGqRPpnO4u1G5O083d-92">
          <mxGeometry relative="1" as="geometry" />
        </mxCell>
        <mxCell id="GJoGqRPpnO4u1G5O083d-36" style="edgeStyle=orthogonalEdgeStyle;rounded=0;orthogonalLoop=1;jettySize=auto;html=1;exitX=1;exitY=1;exitDx=0;exitDy=0;curved=1;endArrow=none;startFill=0;" edge="1" parent="1" source="GJoGqRPpnO4u1G5O083d-40" target="GJoGqRPpnO4u1G5O083d-99">
          <mxGeometry relative="1" as="geometry" />
        </mxCell>
        <mxCell id="GJoGqRPpnO4u1G5O083d-37" style="edgeStyle=orthogonalEdgeStyle;rounded=0;orthogonalLoop=1;jettySize=auto;html=1;exitX=0.971;exitY=0.342;exitDx=0;exitDy=0;entryX=0;entryY=0.5;entryDx=0;entryDy=0;curved=1;exitPerimeter=0;endArrow=none;startFill=0;" edge="1" parent="1" source="GJoGqRPpnO4u1G5O083d-40" target="GJoGqRPpnO4u1G5O083d-106">
          <mxGeometry relative="1" as="geometry" />
        </mxCell>
        <mxCell id="GJoGqRPpnO4u1G5O083d-38" style="edgeStyle=orthogonalEdgeStyle;rounded=0;orthogonalLoop=1;jettySize=auto;html=1;exitX=1;exitY=0;exitDx=0;exitDy=0;entryX=0;entryY=1;entryDx=0;entryDy=0;curved=1;" edge="1" parent="1" source="GJoGqRPpnO4u1G5O083d-40" target="GJoGqRPpnO4u1G5O083d-55">
          <mxGeometry relative="1" as="geometry">
            <mxPoint x="1133" y="852" as="targetPoint" />
            <Array as="points">
              <mxPoint x="1003" y="1014" />
              <mxPoint x="1003" y="778" />
            </Array>
          </mxGeometry>
        </mxCell>
        <mxCell id="GJoGqRPpnO4u1G5O083d-39" style="edgeStyle=orthogonalEdgeStyle;rounded=0;orthogonalLoop=1;jettySize=auto;html=1;entryX=0;entryY=1;entryDx=0;entryDy=0;curved=1;exitX=0.675;exitY=0.002;exitDx=0;exitDy=0;exitPerimeter=0;" edge="1" parent="1" source="GJoGqRPpnO4u1G5O083d-40" target="GJoGqRPpnO4u1G5O083d-31">
          <mxGeometry relative="1" as="geometry">
            <Array as="points">
              <mxPoint x="682" y="1002" />
              <mxPoint x="753" y="1002" />
              <mxPoint x="753" y="778" />
            </Array>
          </mxGeometry>
        </mxCell>
        <mxCell id="GJoGqRPpnO4u1G5O083d-40" value="" style="ellipse;whiteSpace=wrap;html=1;aspect=fixed;fillColor=#FFFFFF;" vertex="1" parent="1">
          <mxGeometry x="673" y="1012" width="14" height="14" as="geometry" />
        </mxCell>
        <mxCell id="GJoGqRPpnO4u1G5O083d-41" style="edgeStyle=orthogonalEdgeStyle;rounded=0;orthogonalLoop=1;jettySize=auto;html=1;exitX=1;exitY=0;exitDx=0;exitDy=0;curved=1;endArrow=none;startFill=0;" edge="1" parent="1" source="GJoGqRPpnO4u1G5O083d-42" target="GJoGqRPpnO4u1G5O083d-47">
          <mxGeometry relative="1" as="geometry" />
        </mxCell>
        <mxCell id="GJoGqRPpnO4u1G5O083d-42" value="" style="ellipse;whiteSpace=wrap;html=1;aspect=fixed;fillColor=#FFFFFF;" vertex="1" parent="1">
          <mxGeometry x="643" y="536" width="14" height="14" as="geometry" />
        </mxCell>
        <mxCell id="GJoGqRPpnO4u1G5O083d-43" value="Code_Type_Encounter&lt;div&gt;&lt;br&gt;&lt;/div&gt;" style="text;html=1;align=center;verticalAlign=middle;resizable=0;points=[];autosize=1;strokeColor=none;fillColor=none;" vertex="1" parent="1">
          <mxGeometry x="487" y="523" width="150" height="40" as="geometry" />
        </mxCell>
        <mxCell id="GJoGqRPpnO4u1G5O083d-44" style="edgeStyle=orthogonalEdgeStyle;rounded=0;orthogonalLoop=1;jettySize=auto;html=1;exitX=0.5;exitY=1;exitDx=0;exitDy=0;entryX=0;entryY=0;entryDx=0;entryDy=0;curved=1;endArrow=none;startFill=0;" edge="1" parent="1" source="GJoGqRPpnO4u1G5O083d-45" target="GJoGqRPpnO4u1G5O083d-42">
          <mxGeometry relative="1" as="geometry" />
        </mxCell>
        <mxCell id="GJoGqRPpnO4u1G5O083d-45" value="" style="ellipse;whiteSpace=wrap;html=1;aspect=fixed;fillColor=#FFFFFF;" vertex="1" parent="1">
          <mxGeometry x="587" y="456" width="14" height="14" as="geometry" />
        </mxCell>
        <mxCell id="GJoGqRPpnO4u1G5O083d-46" value="Description" style="text;html=1;align=center;verticalAlign=middle;resizable=0;points=[];autosize=1;strokeColor=none;fillColor=none;" vertex="1" parent="1">
          <mxGeometry x="507" y="456" width="80" height="30" as="geometry" />
        </mxCell>
        <mxCell id="GJoGqRPpnO4u1G5O083d-47" value="" style="ellipse;whiteSpace=wrap;html=1;aspect=fixed;fillColor=#FFFFFF;" vertex="1" parent="1">
          <mxGeometry x="703" y="456" width="14" height="14" as="geometry" />
        </mxCell>
        <mxCell id="GJoGqRPpnO4u1G5O083d-48" value="Base_Cost" style="text;html=1;align=center;verticalAlign=middle;resizable=0;points=[];autosize=1;strokeColor=none;fillColor=none;" vertex="1" parent="1">
          <mxGeometry x="713" y="436" width="80" height="30" as="geometry" />
        </mxCell>
        <mxCell id="GJoGqRPpnO4u1G5O083d-49" value="Id_Class" style="text;html=1;align=center;verticalAlign=middle;resizable=0;points=[];autosize=1;strokeColor=none;fillColor=none;" vertex="1" parent="1">
          <mxGeometry x="673" y="640" width="70" height="30" as="geometry" />
        </mxCell>
        <mxCell id="GJoGqRPpnO4u1G5O083d-50" style="edgeStyle=orthogonalEdgeStyle;rounded=0;orthogonalLoop=1;jettySize=auto;html=1;exitX=0.5;exitY=1;exitDx=0;exitDy=0;entryX=0.5;entryY=0;entryDx=0;entryDy=0;endArrow=none;startFill=0;" edge="1" parent="1" source="GJoGqRPpnO4u1G5O083d-51" target="GJoGqRPpnO4u1G5O083d-23">
          <mxGeometry relative="1" as="geometry" />
        </mxCell>
        <mxCell id="GJoGqRPpnO4u1G5O083d-51" value="" style="ellipse;whiteSpace=wrap;html=1;aspect=fixed;fillColor=#FFFFFF;" vertex="1" parent="1">
          <mxGeometry x="741" y="572" width="14" height="14" as="geometry" />
        </mxCell>
        <mxCell id="GJoGqRPpnO4u1G5O083d-52" value="Name" style="text;html=1;align=center;verticalAlign=middle;resizable=0;points=[];autosize=1;strokeColor=none;fillColor=none;" vertex="1" parent="1">
          <mxGeometry x="681" y="542" width="60" height="30" as="geometry" />
        </mxCell>
        <mxCell id="GJoGqRPpnO4u1G5O083d-53" value="Id_Organization" style="text;html=1;align=center;verticalAlign=middle;resizable=0;points=[];autosize=1;strokeColor=none;fillColor=none;" vertex="1" parent="1">
          <mxGeometry x="738" y="747" width="110" height="30" as="geometry" />
        </mxCell>
        <mxCell id="GJoGqRPpnO4u1G5O083d-54" style="edgeStyle=orthogonalEdgeStyle;rounded=0;orthogonalLoop=1;jettySize=auto;html=1;exitX=1;exitY=0.5;exitDx=0;exitDy=0;entryX=0;entryY=0.5;entryDx=0;entryDy=0;endArrow=none;startFill=0;" edge="1" parent="1" source="GJoGqRPpnO4u1G5O083d-55" target="GJoGqRPpnO4u1G5O083d-79">
          <mxGeometry relative="1" as="geometry" />
        </mxCell>
        <mxCell id="GJoGqRPpnO4u1G5O083d-55" value="" style="ellipse;whiteSpace=wrap;html=1;aspect=fixed;fillColor=#FFFFFF;" vertex="1" parent="1">
          <mxGeometry x="1023" y="766" width="14" height="14" as="geometry" />
        </mxCell>
        <mxCell id="GJoGqRPpnO4u1G5O083d-56" value="" style="ellipse;whiteSpace=wrap;html=1;aspect=fixed;fillColor=#FFFFFF;" vertex="1" parent="1">
          <mxGeometry x="823" y="738" width="14" height="14" as="geometry" />
        </mxCell>
        <mxCell id="GJoGqRPpnO4u1G5O083d-57" value="" style="ellipse;whiteSpace=wrap;html=1;aspect=fixed;fillColor=#FFFFFF;" vertex="1" parent="1">
          <mxGeometry x="860" y="842" width="14" height="14" as="geometry" />
        </mxCell>
        <mxCell id="GJoGqRPpnO4u1G5O083d-58" value="" style="ellipse;whiteSpace=wrap;html=1;aspect=fixed;fillColor=#FFFFFF;" vertex="1" parent="1">
          <mxGeometry x="823" y="842" width="14" height="14" as="geometry" />
        </mxCell>
        <mxCell id="GJoGqRPpnO4u1G5O083d-59" value="" style="ellipse;whiteSpace=wrap;html=1;aspect=fixed;fillColor=#FFFFFF;" vertex="1" parent="1">
          <mxGeometry x="923" y="832" width="14" height="14" as="geometry" />
        </mxCell>
        <mxCell id="GJoGqRPpnO4u1G5O083d-60" value="Name" style="text;html=1;align=center;verticalAlign=middle;resizable=0;points=[];autosize=1;strokeColor=none;fillColor=none;" vertex="1" parent="1">
          <mxGeometry x="773" y="832" width="60" height="30" as="geometry" />
        </mxCell>
        <mxCell id="GJoGqRPpnO4u1G5O083d-61" value="Address" style="text;strokeColor=none;align=center;fillColor=none;html=1;verticalAlign=middle;whiteSpace=wrap;rounded=0;" vertex="1" parent="1">
          <mxGeometry x="837" y="846" width="60" height="30" as="geometry" />
        </mxCell>
        <mxCell id="GJoGqRPpnO4u1G5O083d-62" style="edgeStyle=orthogonalEdgeStyle;rounded=0;orthogonalLoop=1;jettySize=auto;html=1;exitX=1;exitY=1;exitDx=0;exitDy=0;entryX=0.5;entryY=0;entryDx=0;entryDy=0;curved=1;endArrow=none;startFill=0;" edge="1" parent="1" source="GJoGqRPpnO4u1G5O083d-31" target="GJoGqRPpnO4u1G5O083d-57">
          <mxGeometry relative="1" as="geometry">
            <mxPoint x="890" y="780" as="sourcePoint" />
            <mxPoint x="867" y="842" as="targetPoint" />
            <Array as="points">
              <mxPoint x="858" y="780" />
              <mxPoint x="868" y="780" />
              <mxPoint x="868" y="842" />
            </Array>
          </mxGeometry>
        </mxCell>
        <mxCell id="GJoGqRPpnO4u1G5O083d-63" style="edgeStyle=orthogonalEdgeStyle;rounded=0;orthogonalLoop=1;jettySize=auto;html=1;exitX=0.934;exitY=0.725;exitDx=0;exitDy=0;curved=1;endArrow=none;startFill=0;exitPerimeter=0;" edge="1" parent="1" source="GJoGqRPpnO4u1G5O083d-31" target="GJoGqRPpnO4u1G5O083d-59">
          <mxGeometry relative="1" as="geometry">
            <mxPoint x="868" y="788" as="sourcePoint" />
            <mxPoint x="877" y="852" as="targetPoint" />
            <Array as="points">
              <mxPoint x="873" y="776" />
              <mxPoint x="873" y="782" />
              <mxPoint x="883" y="782" />
              <mxPoint x="883" y="839" />
            </Array>
          </mxGeometry>
        </mxCell>
        <mxCell id="GJoGqRPpnO4u1G5O083d-64" value="Zip_Code" style="text;html=1;align=center;verticalAlign=middle;resizable=0;points=[];autosize=1;strokeColor=none;fillColor=none;" vertex="1" parent="1">
          <mxGeometry x="883" y="840" width="80" height="30" as="geometry" />
        </mxCell>
        <mxCell id="GJoGqRPpnO4u1G5O083d-65" value="Lat" style="text;html=1;align=center;verticalAlign=middle;resizable=0;points=[];autosize=1;strokeColor=none;fillColor=none;" vertex="1" parent="1">
          <mxGeometry x="820" y="717" width="40" height="30" as="geometry" />
        </mxCell>
        <mxCell id="GJoGqRPpnO4u1G5O083d-66" value="" style="ellipse;whiteSpace=wrap;html=1;aspect=fixed;fillColor=#FFFFFF;" vertex="1" parent="1">
          <mxGeometry x="859" y="730" width="14" height="14" as="geometry" />
        </mxCell>
        <mxCell id="GJoGqRPpnO4u1G5O083d-67" value="Lon" style="text;html=1;align=center;verticalAlign=middle;resizable=0;points=[];autosize=1;strokeColor=none;fillColor=none;" vertex="1" parent="1">
          <mxGeometry x="846" y="708" width="40" height="30" as="geometry" />
        </mxCell>
        <mxCell id="GJoGqRPpnO4u1G5O083d-68" value="Phone" style="text;html=1;align=center;verticalAlign=middle;resizable=0;points=[];autosize=1;strokeColor=none;fillColor=none;" vertex="1" parent="1">
          <mxGeometry x="877" y="708" width="60" height="30" as="geometry" />
        </mxCell>
        <mxCell id="GJoGqRPpnO4u1G5O083d-69" value="" style="ellipse;whiteSpace=wrap;html=1;aspect=fixed;fillColor=#FFFFFF;" vertex="1" parent="1">
          <mxGeometry x="923" y="732" width="14" height="14" as="geometry" />
        </mxCell>
        <mxCell id="GJoGqRPpnO4u1G5O083d-70" value="" style="ellipse;whiteSpace=wrap;html=1;aspect=fixed;fillColor=#FFFFFF;" vertex="1" parent="1">
          <mxGeometry x="923" y="788" width="14" height="14" as="geometry" />
        </mxCell>
        <mxCell id="GJoGqRPpnO4u1G5O083d-71" value="Revenue" style="text;html=1;align=center;verticalAlign=middle;resizable=0;points=[];autosize=1;strokeColor=none;fillColor=none;" vertex="1" parent="1">
          <mxGeometry x="923" y="714" width="70" height="30" as="geometry" />
        </mxCell>
        <mxCell id="GJoGqRPpnO4u1G5O083d-72" value="Utilization" style="text;html=1;align=center;verticalAlign=middle;resizable=0;points=[];autosize=1;strokeColor=none;fillColor=none;" vertex="1" parent="1">
          <mxGeometry x="893" y="794" width="80" height="30" as="geometry" />
        </mxCell>
        <mxCell id="GJoGqRPpnO4u1G5O083d-73" value="Id_City" style="text;html=1;align=center;verticalAlign=middle;resizable=0;points=[];autosize=1;strokeColor=none;fillColor=none;" vertex="1" parent="1">
          <mxGeometry x="1023" y="772" width="60" height="30" as="geometry" />
        </mxCell>
        <mxCell id="GJoGqRPpnO4u1G5O083d-74" style="edgeStyle=orthogonalEdgeStyle;rounded=0;orthogonalLoop=1;jettySize=auto;html=1;entryX=0.5;entryY=1;entryDx=0;entryDy=0;endArrow=none;startFill=0;" edge="1" parent="1" source="GJoGqRPpnO4u1G5O083d-75" target="GJoGqRPpnO4u1G5O083d-55">
          <mxGeometry relative="1" as="geometry" />
        </mxCell>
        <mxCell id="GJoGqRPpnO4u1G5O083d-75" value="" style="ellipse;whiteSpace=wrap;html=1;aspect=fixed;fillColor=#FFFFFF;" vertex="1" parent="1">
          <mxGeometry x="1023" y="802" width="14" height="14" as="geometry" />
        </mxCell>
        <mxCell id="GJoGqRPpnO4u1G5O083d-76" value="Name" style="text;html=1;align=center;verticalAlign=middle;resizable=0;points=[];autosize=1;strokeColor=none;fillColor=none;" vertex="1" parent="1">
          <mxGeometry x="1000" y="810" width="60" height="30" as="geometry" />
        </mxCell>
        <mxCell id="GJoGqRPpnO4u1G5O083d-77" style="edgeStyle=orthogonalEdgeStyle;rounded=0;orthogonalLoop=1;jettySize=auto;html=1;exitX=0.5;exitY=1;exitDx=0;exitDy=0;entryX=0.5;entryY=0;entryDx=0;entryDy=0;endArrow=none;startFill=0;" edge="1" parent="1" source="GJoGqRPpnO4u1G5O083d-79" target="GJoGqRPpnO4u1G5O083d-81">
          <mxGeometry relative="1" as="geometry" />
        </mxCell>
        <mxCell id="GJoGqRPpnO4u1G5O083d-78" style="edgeStyle=orthogonalEdgeStyle;rounded=0;orthogonalLoop=1;jettySize=auto;html=1;exitX=1;exitY=0.5;exitDx=0;exitDy=0;entryX=0;entryY=0.5;entryDx=0;entryDy=0;endArrow=none;startFill=0;" edge="1" parent="1" source="GJoGqRPpnO4u1G5O083d-79" target="GJoGqRPpnO4u1G5O083d-84">
          <mxGeometry relative="1" as="geometry" />
        </mxCell>
        <mxCell id="GJoGqRPpnO4u1G5O083d-79" value="" style="ellipse;whiteSpace=wrap;html=1;aspect=fixed;fillColor=#FFFFFF;" vertex="1" parent="1">
          <mxGeometry x="1103" y="766" width="14" height="14" as="geometry" />
        </mxCell>
        <mxCell id="GJoGqRPpnO4u1G5O083d-80" value="Id_County" style="text;html=1;align=center;verticalAlign=middle;resizable=0;points=[];autosize=1;strokeColor=none;fillColor=none;" vertex="1" parent="1">
          <mxGeometry x="1070" y="738" width="80" height="30" as="geometry" />
        </mxCell>
        <mxCell id="GJoGqRPpnO4u1G5O083d-81" value="" style="ellipse;whiteSpace=wrap;html=1;aspect=fixed;fillColor=#FFFFFF;" vertex="1" parent="1">
          <mxGeometry x="1103" y="802" width="14" height="14" as="geometry" />
        </mxCell>
        <mxCell id="GJoGqRPpnO4u1G5O083d-82" value="Name" style="text;html=1;align=center;verticalAlign=middle;resizable=0;points=[];autosize=1;strokeColor=none;fillColor=none;" vertex="1" parent="1">
          <mxGeometry x="1080" y="812" width="60" height="30" as="geometry" />
        </mxCell>
        <mxCell id="GJoGqRPpnO4u1G5O083d-83" style="edgeStyle=orthogonalEdgeStyle;rounded=0;orthogonalLoop=1;jettySize=auto;html=1;exitX=0.5;exitY=1;exitDx=0;exitDy=0;entryX=0.5;entryY=0;entryDx=0;entryDy=0;endArrow=none;startFill=0;" edge="1" parent="1" source="GJoGqRPpnO4u1G5O083d-84" target="GJoGqRPpnO4u1G5O083d-86">
          <mxGeometry relative="1" as="geometry" />
        </mxCell>
        <mxCell id="GJoGqRPpnO4u1G5O083d-84" value="" style="ellipse;whiteSpace=wrap;html=1;aspect=fixed;fillColor=#FFFFFF;" vertex="1" parent="1">
          <mxGeometry x="1173" y="766" width="14" height="14" as="geometry" />
        </mxCell>
        <mxCell id="GJoGqRPpnO4u1G5O083d-85" value="Id_State" style="text;html=1;align=center;verticalAlign=middle;resizable=0;points=[];autosize=1;strokeColor=none;fillColor=none;" vertex="1" parent="1">
          <mxGeometry x="1145" y="738" width="70" height="30" as="geometry" />
        </mxCell>
        <mxCell id="GJoGqRPpnO4u1G5O083d-86" value="" style="ellipse;whiteSpace=wrap;html=1;aspect=fixed;fillColor=#FFFFFF;" vertex="1" parent="1">
          <mxGeometry x="1173" y="802" width="14" height="14" as="geometry" />
        </mxCell>
        <mxCell id="GJoGqRPpnO4u1G5O083d-87" value="Name" style="text;html=1;align=center;verticalAlign=middle;resizable=0;points=[];autosize=1;strokeColor=none;fillColor=none;" vertex="1" parent="1">
          <mxGeometry x="1150" y="810" width="60" height="30" as="geometry" />
        </mxCell>
        <mxCell id="GJoGqRPpnO4u1G5O083d-88" value="Id_Provider" style="text;html=1;align=center;verticalAlign=middle;resizable=0;points=[];autosize=1;strokeColor=none;fillColor=none;" vertex="1" parent="1">
          <mxGeometry x="597" y="982" width="80" height="30" as="geometry" />
        </mxCell>
        <mxCell id="GJoGqRPpnO4u1G5O083d-89" style="edgeStyle=orthogonalEdgeStyle;rounded=0;orthogonalLoop=1;jettySize=auto;html=1;exitX=0.5;exitY=0;exitDx=0;exitDy=0;entryX=0.5;entryY=1;entryDx=0;entryDy=0;curved=1;endArrow=none;startFill=0;" edge="1" parent="1" source="GJoGqRPpnO4u1G5O083d-90" target="GJoGqRPpnO4u1G5O083d-40">
          <mxGeometry relative="1" as="geometry" />
        </mxCell>
        <mxCell id="GJoGqRPpnO4u1G5O083d-90" value="" style="ellipse;whiteSpace=wrap;html=1;aspect=fixed;fillColor=#FFFFFF;" vertex="1" parent="1">
          <mxGeometry x="640" y="1078" width="14" height="14" as="geometry" />
        </mxCell>
        <mxCell id="GJoGqRPpnO4u1G5O083d-91" value="" style="ellipse;whiteSpace=wrap;html=1;aspect=fixed;fillColor=#FFFFFF;" vertex="1" parent="1">
          <mxGeometry x="583" y="1064" width="14" height="14" as="geometry" />
        </mxCell>
        <mxCell id="GJoGqRPpnO4u1G5O083d-92" value="" style="ellipse;whiteSpace=wrap;html=1;aspect=fixed;fillColor=#FFFFFF;" vertex="1" parent="1">
          <mxGeometry x="609" y="1078" width="14" height="14" as="geometry" />
        </mxCell>
        <mxCell id="GJoGqRPpnO4u1G5O083d-93" value="" style="ellipse;whiteSpace=wrap;html=1;aspect=fixed;fillColor=#FFFFFF;" vertex="1" parent="1">
          <mxGeometry x="567" y="1042" width="14" height="14" as="geometry" />
        </mxCell>
        <mxCell id="GJoGqRPpnO4u1G5O083d-94" value="First_Name" style="text;html=1;align=center;verticalAlign=middle;resizable=0;points=[];autosize=1;strokeColor=none;fillColor=none;" vertex="1" parent="1">
          <mxGeometry x="487" y="1034" width="90" height="30" as="geometry" />
        </mxCell>
        <mxCell id="GJoGqRPpnO4u1G5O083d-95" value="Last_Name" style="text;html=1;align=center;verticalAlign=middle;resizable=0;points=[];autosize=1;strokeColor=none;fillColor=none;" vertex="1" parent="1">
          <mxGeometry x="507" y="1056" width="80" height="30" as="geometry" />
        </mxCell>
        <mxCell id="GJoGqRPpnO4u1G5O083d-96" value="Gender" style="text;html=1;align=center;verticalAlign=middle;resizable=0;points=[];autosize=1;strokeColor=none;fillColor=none;" vertex="1" parent="1">
          <mxGeometry x="567" y="1086" width="60" height="30" as="geometry" />
        </mxCell>
        <mxCell id="GJoGqRPpnO4u1G5O083d-97" value="Address" style="text;html=1;align=center;verticalAlign=middle;resizable=0;points=[];autosize=1;strokeColor=none;fillColor=none;" vertex="1" parent="1">
          <mxGeometry x="618" y="1090" width="70" height="30" as="geometry" />
        </mxCell>
        <mxCell id="GJoGqRPpnO4u1G5O083d-98" value="Zip_Code" style="text;html=1;align=center;verticalAlign=middle;resizable=0;points=[];autosize=1;strokeColor=none;fillColor=none;" vertex="1" parent="1">
          <mxGeometry x="684" y="1078" width="80" height="30" as="geometry" />
        </mxCell>
        <mxCell id="GJoGqRPpnO4u1G5O083d-99" value="" style="ellipse;whiteSpace=wrap;html=1;aspect=fixed;fillColor=#FFFFFF;" vertex="1" parent="1">
          <mxGeometry x="703" y="1072" width="14" height="14" as="geometry" />
        </mxCell>
        <mxCell id="GJoGqRPpnO4u1G5O083d-100" value="Lon" style="text;html=1;align=center;verticalAlign=middle;resizable=0;points=[];autosize=1;strokeColor=none;fillColor=none;" vertex="1" parent="1">
          <mxGeometry x="778" y="1042" width="40" height="30" as="geometry" />
        </mxCell>
        <mxCell id="GJoGqRPpnO4u1G5O083d-101" value="Lat" style="text;html=1;align=center;verticalAlign=middle;resizable=0;points=[];autosize=1;strokeColor=none;fillColor=none;" vertex="1" parent="1">
          <mxGeometry x="769" y="1064" width="40" height="30" as="geometry" />
        </mxCell>
        <mxCell id="GJoGqRPpnO4u1G5O083d-102" value="" style="ellipse;whiteSpace=wrap;html=1;aspect=fixed;fillColor=#FFFFFF;" vertex="1" parent="1">
          <mxGeometry x="764" y="1072" width="14" height="14" as="geometry" />
        </mxCell>
        <mxCell id="GJoGqRPpnO4u1G5O083d-103" value="" style="ellipse;whiteSpace=wrap;html=1;aspect=fixed;fillColor=#FFFFFF;" vertex="1" parent="1">
          <mxGeometry x="769" y="1050" width="14" height="14" as="geometry" />
        </mxCell>
        <mxCell id="GJoGqRPpnO4u1G5O083d-104" style="edgeStyle=orthogonalEdgeStyle;rounded=0;orthogonalLoop=1;jettySize=auto;html=1;exitX=1;exitY=0.5;exitDx=0;exitDy=0;entryX=0;entryY=0.5;entryDx=0;entryDy=0;endArrow=none;startFill=0;curved=1;" edge="1" parent="1" source="GJoGqRPpnO4u1G5O083d-40" target="GJoGqRPpnO4u1G5O083d-103">
          <mxGeometry relative="1" as="geometry" />
        </mxCell>
        <mxCell id="GJoGqRPpnO4u1G5O083d-105" style="edgeStyle=orthogonalEdgeStyle;rounded=0;orthogonalLoop=1;jettySize=auto;html=1;exitX=0;exitY=0;exitDx=0;exitDy=0;entryX=0.981;entryY=0.726;entryDx=0;entryDy=0;entryPerimeter=0;endArrow=none;startFill=0;curved=1;" edge="1" parent="1" source="GJoGqRPpnO4u1G5O083d-102" target="GJoGqRPpnO4u1G5O083d-40">
          <mxGeometry relative="1" as="geometry" />
        </mxCell>
        <mxCell id="GJoGqRPpnO4u1G5O083d-106" value="" style="ellipse;whiteSpace=wrap;html=1;aspect=fixed;fillColor=#FFFFFF;" vertex="1" parent="1">
          <mxGeometry x="769" y="1026" width="14" height="14" as="geometry" />
        </mxCell>
        <mxCell id="GJoGqRPpnO4u1G5O083d-107" value="Utilization" style="text;html=1;align=center;verticalAlign=middle;resizable=0;points=[];autosize=1;strokeColor=none;fillColor=none;" vertex="1" parent="1">
          <mxGeometry x="773" y="1018" width="80" height="30" as="geometry" />
        </mxCell>
        <mxCell id="GJoGqRPpnO4u1G5O083d-108" style="edgeStyle=orthogonalEdgeStyle;rounded=0;orthogonalLoop=1;jettySize=auto;html=1;exitX=0.924;exitY=0.747;exitDx=0;exitDy=0;entryX=0.5;entryY=0;entryDx=0;entryDy=0;curved=1;exitPerimeter=0;" edge="1" parent="1" source="GJoGqRPpnO4u1G5O083d-124" target="GJoGqRPpnO4u1G5O083d-55">
          <mxGeometry relative="1" as="geometry" />
        </mxCell>
        <mxCell id="GJoGqRPpnO4u1G5O083d-109" style="edgeStyle=orthogonalEdgeStyle;rounded=0;orthogonalLoop=1;jettySize=auto;html=1;exitX=0.355;exitY=0.017;exitDx=0;exitDy=0;entryX=0.5;entryY=1;entryDx=0;entryDy=0;curved=1;endArrow=none;startFill=0;exitPerimeter=0;" edge="1" parent="1" source="GJoGqRPpnO4u1G5O083d-124" target="GJoGqRPpnO4u1G5O083d-129">
          <mxGeometry relative="1" as="geometry" />
        </mxCell>
        <mxCell id="GJoGqRPpnO4u1G5O083d-110" style="edgeStyle=orthogonalEdgeStyle;rounded=0;orthogonalLoop=1;jettySize=auto;html=1;exitX=0.5;exitY=0;exitDx=0;exitDy=0;entryX=0.5;entryY=1;entryDx=0;entryDy=0;curved=1;endArrow=none;startFill=0;" edge="1" parent="1" source="GJoGqRPpnO4u1G5O083d-124" target="GJoGqRPpnO4u1G5O083d-127">
          <mxGeometry relative="1" as="geometry" />
        </mxCell>
        <mxCell id="GJoGqRPpnO4u1G5O083d-111" style="edgeStyle=orthogonalEdgeStyle;rounded=0;orthogonalLoop=1;jettySize=auto;html=1;exitX=0.673;exitY=0.055;exitDx=0;exitDy=0;entryX=0.5;entryY=1;entryDx=0;entryDy=0;curved=1;exitPerimeter=0;endArrow=none;startFill=0;" edge="1" parent="1" source="GJoGqRPpnO4u1G5O083d-124" target="GJoGqRPpnO4u1G5O083d-128">
          <mxGeometry relative="1" as="geometry">
            <mxPoint x="983" y="322" as="targetPoint" />
          </mxGeometry>
        </mxCell>
        <mxCell id="GJoGqRPpnO4u1G5O083d-112" style="edgeStyle=orthogonalEdgeStyle;rounded=0;orthogonalLoop=1;jettySize=auto;html=1;exitX=0.651;exitY=0.036;exitDx=0;exitDy=0;entryX=0.5;entryY=1;entryDx=0;entryDy=0;curved=1;exitPerimeter=0;endArrow=none;startFill=0;" edge="1" parent="1" source="GJoGqRPpnO4u1G5O083d-124" target="GJoGqRPpnO4u1G5O083d-126">
          <mxGeometry relative="1" as="geometry">
            <mxPoint x="1063" y="272" as="targetPoint" />
            <Array as="points">
              <mxPoint x="973" y="532" />
              <mxPoint x="973" y="372" />
              <mxPoint x="1063" y="372" />
              <mxPoint x="1063" y="212" />
            </Array>
          </mxGeometry>
        </mxCell>
        <mxCell id="GJoGqRPpnO4u1G5O083d-113" style="edgeStyle=orthogonalEdgeStyle;rounded=0;orthogonalLoop=1;jettySize=auto;html=1;exitX=0.978;exitY=0.364;exitDx=0;exitDy=0;entryX=0.5;entryY=1;entryDx=0;entryDy=0;exitPerimeter=0;curved=1;endArrow=none;startFill=0;" edge="1" parent="1" source="GJoGqRPpnO4u1G5O083d-124" target="GJoGqRPpnO4u1G5O083d-152">
          <mxGeometry relative="1" as="geometry">
            <mxPoint x="1163.655737704918" y="538.9508196721312" as="targetPoint" />
            <Array as="points">
              <mxPoint x="1160" y="537" />
            </Array>
          </mxGeometry>
        </mxCell>
        <mxCell id="GJoGqRPpnO4u1G5O083d-114" style="edgeStyle=orthogonalEdgeStyle;rounded=0;orthogonalLoop=1;jettySize=auto;html=1;exitX=1;exitY=0.5;exitDx=0;exitDy=0;entryX=0;entryY=0.5;entryDx=0;entryDy=0;curved=1;endArrow=none;startFill=0;" edge="1" parent="1" source="GJoGqRPpnO4u1G5O083d-124" target="GJoGqRPpnO4u1G5O083d-153">
          <mxGeometry relative="1" as="geometry">
            <Array as="points">
              <mxPoint x="1143" y="539" />
              <mxPoint x="1143" y="479" />
            </Array>
          </mxGeometry>
        </mxCell>
        <mxCell id="GJoGqRPpnO4u1G5O083d-115" style="edgeStyle=orthogonalEdgeStyle;rounded=0;orthogonalLoop=1;jettySize=auto;html=1;exitX=1;exitY=0.5;exitDx=0;exitDy=0;entryX=0;entryY=0.5;entryDx=0;entryDy=0;curved=1;endArrow=none;startFill=0;" edge="1" parent="1" source="GJoGqRPpnO4u1G5O083d-124" target="GJoGqRPpnO4u1G5O083d-154">
          <mxGeometry relative="1" as="geometry">
            <Array as="points">
              <mxPoint x="1123" y="539" />
              <mxPoint x="1123" y="525" />
            </Array>
          </mxGeometry>
        </mxCell>
        <mxCell id="GJoGqRPpnO4u1G5O083d-116" style="edgeStyle=orthogonalEdgeStyle;rounded=0;orthogonalLoop=1;jettySize=auto;html=1;exitX=0.976;exitY=0.669;exitDx=0;exitDy=0;entryX=0;entryY=0.5;entryDx=0;entryDy=0;curved=1;exitPerimeter=0;endArrow=none;startFill=0;" edge="1" parent="1" source="GJoGqRPpnO4u1G5O083d-124" target="GJoGqRPpnO4u1G5O083d-155">
          <mxGeometry relative="1" as="geometry" />
        </mxCell>
        <mxCell id="GJoGqRPpnO4u1G5O083d-117" style="edgeStyle=orthogonalEdgeStyle;rounded=0;orthogonalLoop=1;jettySize=auto;html=1;exitX=1.013;exitY=0.249;exitDx=0;exitDy=0;entryX=0.5;entryY=0;entryDx=0;entryDy=0;curved=1;endArrow=none;startFill=0;exitPerimeter=0;" edge="1" parent="1" source="GJoGqRPpnO4u1G5O083d-125" target="GJoGqRPpnO4u1G5O083d-163">
          <mxGeometry relative="1" as="geometry">
            <Array as="points">
              <mxPoint x="920" y="546" />
              <mxPoint x="920" y="579" />
              <mxPoint x="893" y="579" />
            </Array>
          </mxGeometry>
        </mxCell>
        <mxCell id="GJoGqRPpnO4u1G5O083d-118" style="edgeStyle=orthogonalEdgeStyle;rounded=0;orthogonalLoop=1;jettySize=auto;html=1;exitX=0;exitY=1;exitDx=0;exitDy=0;entryX=0.5;entryY=0;entryDx=0;entryDy=0;curved=1;endArrow=none;startFill=0;" edge="1" parent="1" source="GJoGqRPpnO4u1G5O083d-124" target="GJoGqRPpnO4u1G5O083d-162">
          <mxGeometry relative="1" as="geometry">
            <Array as="points">
              <mxPoint x="915" y="562" />
              <mxPoint x="873" y="562" />
            </Array>
          </mxGeometry>
        </mxCell>
        <mxCell id="GJoGqRPpnO4u1G5O083d-119" style="edgeStyle=orthogonalEdgeStyle;rounded=0;orthogonalLoop=1;jettySize=auto;html=1;exitX=0.7;exitY=0.961;exitDx=0;exitDy=0;entryX=0.5;entryY=0;entryDx=0;entryDy=0;exitPerimeter=0;curved=1;endArrow=none;startFill=0;" edge="1" parent="1" source="GJoGqRPpnO4u1G5O083d-124" target="GJoGqRPpnO4u1G5O083d-165">
          <mxGeometry relative="1" as="geometry">
            <Array as="points">
              <mxPoint x="923" y="579" />
              <mxPoint x="930" y="579" />
            </Array>
          </mxGeometry>
        </mxCell>
        <mxCell id="GJoGqRPpnO4u1G5O083d-120" style="edgeStyle=orthogonalEdgeStyle;rounded=0;orthogonalLoop=1;jettySize=auto;html=1;exitX=0.797;exitY=0.928;exitDx=0;exitDy=0;entryX=0.5;entryY=0;entryDx=0;entryDy=0;curved=1;endArrow=none;startFill=0;exitPerimeter=0;" edge="1" parent="1">
          <mxGeometry relative="1" as="geometry">
            <mxPoint x="922.998" y="544.992" as="sourcePoint" />
            <mxPoint x="952.84" y="655.9999999999999" as="targetPoint" />
          </mxGeometry>
        </mxCell>
        <mxCell id="GJoGqRPpnO4u1G5O083d-121" style="edgeStyle=orthogonalEdgeStyle;rounded=0;orthogonalLoop=1;jettySize=auto;html=1;exitX=1;exitY=1;exitDx=0;exitDy=0;entryX=0.5;entryY=0;entryDx=0;entryDy=0;curved=1;endArrow=none;startFill=0;" edge="1" parent="1" source="GJoGqRPpnO4u1G5O083d-124" target="GJoGqRPpnO4u1G5O083d-167">
          <mxGeometry relative="1" as="geometry" />
        </mxCell>
        <mxCell id="GJoGqRPpnO4u1G5O083d-122" style="edgeStyle=orthogonalEdgeStyle;rounded=0;orthogonalLoop=1;jettySize=auto;html=1;exitX=1;exitY=0.5;exitDx=0;exitDy=0;entryX=0;entryY=0.5;entryDx=0;entryDy=0;curved=1;endArrow=none;startFill=0;" edge="1" parent="1" source="GJoGqRPpnO4u1G5O083d-124" target="GJoGqRPpnO4u1G5O083d-171">
          <mxGeometry relative="1" as="geometry" />
        </mxCell>
        <mxCell id="GJoGqRPpnO4u1G5O083d-123" style="edgeStyle=orthogonalEdgeStyle;rounded=0;orthogonalLoop=1;jettySize=auto;html=1;exitX=1;exitY=0.5;exitDx=0;exitDy=0;entryX=0;entryY=0.5;entryDx=0;entryDy=0;curved=1;endArrow=none;startFill=0;" edge="1" parent="1" source="GJoGqRPpnO4u1G5O083d-124" target="GJoGqRPpnO4u1G5O083d-174">
          <mxGeometry relative="1" as="geometry">
            <mxPoint x="1063" y="642" as="targetPoint" />
          </mxGeometry>
        </mxCell>
        <mxCell id="GJoGqRPpnO4u1G5O083d-124" value="" style="ellipse;whiteSpace=wrap;html=1;aspect=fixed;fillColor=#FFFFFF;" vertex="1" parent="1">
          <mxGeometry x="913" y="532" width="14" height="14" as="geometry" />
        </mxCell>
        <mxCell id="GJoGqRPpnO4u1G5O083d-125" value="Id_Patient" style="text;html=1;align=center;verticalAlign=middle;resizable=0;points=[];autosize=1;strokeColor=none;fillColor=none;" vertex="1" parent="1">
          <mxGeometry x="837" y="538" width="80" height="30" as="geometry" />
        </mxCell>
        <mxCell id="GJoGqRPpnO4u1G5O083d-126" value="" style="ellipse;whiteSpace=wrap;html=1;aspect=fixed;fillColor=#FFFFFF;" vertex="1" parent="1">
          <mxGeometry x="1046" y="198" width="14" height="14" as="geometry" />
        </mxCell>
        <mxCell id="GJoGqRPpnO4u1G5O083d-127" value="" style="ellipse;whiteSpace=wrap;html=1;aspect=fixed;fillColor=#FFFFFF;" vertex="1" parent="1">
          <mxGeometry x="923" y="302" width="14" height="14" as="geometry" />
        </mxCell>
        <mxCell id="GJoGqRPpnO4u1G5O083d-128" value="" style="ellipse;whiteSpace=wrap;html=1;aspect=fixed;fillColor=#FFFFFF;" vertex="1" parent="1">
          <mxGeometry x="979" y="302" width="14" height="14" as="geometry" />
        </mxCell>
        <mxCell id="GJoGqRPpnO4u1G5O083d-129" value="" style="ellipse;whiteSpace=wrap;html=1;aspect=fixed;fillColor=#FFFFFF;" vertex="1" parent="1">
          <mxGeometry x="883" y="302" width="14" height="14" as="geometry" />
        </mxCell>
        <mxCell id="GJoGqRPpnO4u1G5O083d-130" value="Last_Name" style="text;html=1;align=center;verticalAlign=middle;resizable=0;points=[];autosize=1;strokeColor=none;fillColor=none;" vertex="1" parent="1">
          <mxGeometry x="827" y="272" width="80" height="30" as="geometry" />
        </mxCell>
        <mxCell id="GJoGqRPpnO4u1G5O083d-131" value="Gender" style="text;html=1;align=center;verticalAlign=middle;resizable=0;points=[];autosize=1;strokeColor=none;fillColor=none;" vertex="1" parent="1">
          <mxGeometry x="977" y="272" width="60" height="30" as="geometry" />
        </mxCell>
        <mxCell id="GJoGqRPpnO4u1G5O083d-132" value="First_Name" style="text;html=1;align=center;verticalAlign=middle;resizable=0;points=[];autosize=1;strokeColor=none;fillColor=none;" vertex="1" parent="1">
          <mxGeometry x="897" y="272" width="90" height="30" as="geometry" />
        </mxCell>
        <mxCell id="GJoGqRPpnO4u1G5O083d-133" value="" style="ellipse;whiteSpace=wrap;html=1;aspect=fixed;fillColor=#FFFFFF;" vertex="1" parent="1">
          <mxGeometry x="1140" y="198" width="14" height="14" as="geometry" />
        </mxCell>
        <mxCell id="GJoGqRPpnO4u1G5O083d-134" value="" style="ellipse;whiteSpace=wrap;html=1;aspect=fixed;fillColor=#FFFFFF;" vertex="1" parent="1">
          <mxGeometry x="1089" y="198" width="14" height="14" as="geometry" />
        </mxCell>
        <mxCell id="GJoGqRPpnO4u1G5O083d-135" value="" style="ellipse;whiteSpace=wrap;html=1;aspect=fixed;fillColor=#FFFFFF;" vertex="1" parent="1">
          <mxGeometry x="1183" y="198" width="14" height="14" as="geometry" />
        </mxCell>
        <mxCell id="GJoGqRPpnO4u1G5O083d-136" value="Birthdate" style="text;html=1;align=center;verticalAlign=middle;resizable=0;points=[];autosize=1;strokeColor=none;fillColor=none;" vertex="1" parent="1">
          <mxGeometry x="993" y="172" width="70" height="30" as="geometry" />
        </mxCell>
        <mxCell id="GJoGqRPpnO4u1G5O083d-137" value="Deathdate" style="text;html=1;align=center;verticalAlign=middle;resizable=0;points=[];autosize=1;strokeColor=none;fillColor=none;" vertex="1" parent="1">
          <mxGeometry x="1056" y="172" width="80" height="30" as="geometry" />
        </mxCell>
        <mxCell id="GJoGqRPpnO4u1G5O083d-138" value="SSN" style="text;html=1;align=center;verticalAlign=middle;resizable=0;points=[];autosize=1;strokeColor=none;fillColor=none;" vertex="1" parent="1">
          <mxGeometry x="1123" y="172" width="50" height="30" as="geometry" />
        </mxCell>
        <mxCell id="GJoGqRPpnO4u1G5O083d-139" value="Drivers" style="text;html=1;align=center;verticalAlign=middle;resizable=0;points=[];autosize=1;strokeColor=none;fillColor=none;" vertex="1" parent="1">
          <mxGeometry x="1163" y="170" width="60" height="30" as="geometry" />
        </mxCell>
        <mxCell id="GJoGqRPpnO4u1G5O083d-140" style="edgeStyle=orthogonalEdgeStyle;rounded=0;orthogonalLoop=1;jettySize=auto;html=1;exitX=1;exitY=0;exitDx=0;exitDy=0;entryX=0.5;entryY=1;entryDx=0;entryDy=0;curved=1;endArrow=none;startFill=0;" edge="1" parent="1" source="GJoGqRPpnO4u1G5O083d-124" target="GJoGqRPpnO4u1G5O083d-134">
          <mxGeometry relative="1" as="geometry">
            <mxPoint x="1063" y="222" as="targetPoint" />
            <mxPoint x="934" y="543" as="sourcePoint" />
            <Array as="points">
              <mxPoint x="925" y="532" />
              <mxPoint x="983" y="532" />
              <mxPoint x="983" y="382" />
              <mxPoint x="1093" y="382" />
              <mxPoint x="1093" y="212" />
            </Array>
          </mxGeometry>
        </mxCell>
        <mxCell id="GJoGqRPpnO4u1G5O083d-141" style="edgeStyle=orthogonalEdgeStyle;rounded=0;orthogonalLoop=1;jettySize=auto;html=1;exitX=1;exitY=0;exitDx=0;exitDy=0;entryX=0.5;entryY=1;entryDx=0;entryDy=0;curved=1;endArrow=none;startFill=0;" edge="1" parent="1" source="GJoGqRPpnO4u1G5O083d-124" target="GJoGqRPpnO4u1G5O083d-133">
          <mxGeometry relative="1" as="geometry">
            <mxPoint x="1166" y="229" as="targetPoint" />
            <mxPoint x="1037" y="550" as="sourcePoint" />
            <Array as="points">
              <mxPoint x="1086" y="534" />
              <mxPoint x="1086" y="389" />
              <mxPoint x="1143" y="389" />
              <mxPoint x="1143" y="212" />
            </Array>
          </mxGeometry>
        </mxCell>
        <mxCell id="GJoGqRPpnO4u1G5O083d-142" style="edgeStyle=orthogonalEdgeStyle;rounded=0;orthogonalLoop=1;jettySize=auto;html=1;exitX=0.947;exitY=0.277;exitDx=0;exitDy=0;entryX=0.5;entryY=1;entryDx=0;entryDy=0;curved=1;endArrow=none;startFill=0;exitPerimeter=0;" edge="1" parent="1" source="GJoGqRPpnO4u1G5O083d-124" target="GJoGqRPpnO4u1G5O083d-135">
          <mxGeometry relative="1" as="geometry">
            <mxPoint x="1157" y="222" as="targetPoint" />
            <mxPoint x="935" y="544" as="sourcePoint" />
            <Array as="points">
              <mxPoint x="926" y="532" />
              <mxPoint x="1093" y="532" />
              <mxPoint x="1093" y="399" />
              <mxPoint x="1153" y="399" />
              <mxPoint x="1153" y="222" />
              <mxPoint x="1190" y="222" />
            </Array>
          </mxGeometry>
        </mxCell>
        <mxCell id="GJoGqRPpnO4u1G5O083d-143" style="edgeStyle=orthogonalEdgeStyle;rounded=0;orthogonalLoop=1;jettySize=auto;html=1;exitX=0.5;exitY=1;exitDx=0;exitDy=0;entryX=0.234;entryY=0.075;entryDx=0;entryDy=0;endArrow=none;startFill=0;curved=1;entryPerimeter=0;" edge="1" parent="1" source="GJoGqRPpnO4u1G5O083d-144" target="GJoGqRPpnO4u1G5O083d-124">
          <mxGeometry relative="1" as="geometry">
            <Array as="points">
              <mxPoint x="852" y="434" />
              <mxPoint x="893" y="434" />
              <mxPoint x="893" y="522" />
              <mxPoint x="916" y="522" />
            </Array>
          </mxGeometry>
        </mxCell>
        <mxCell id="GJoGqRPpnO4u1G5O083d-144" value="" style="ellipse;whiteSpace=wrap;html=1;aspect=fixed;fillColor=#FFFFFF;" vertex="1" parent="1">
          <mxGeometry x="845" y="322" width="14" height="14" as="geometry" />
        </mxCell>
        <mxCell id="GJoGqRPpnO4u1G5O083d-145" style="edgeStyle=orthogonalEdgeStyle;rounded=0;orthogonalLoop=1;jettySize=auto;html=1;exitX=1;exitY=1;exitDx=0;exitDy=0;entryX=0;entryY=0;entryDx=0;entryDy=0;curved=1;endArrow=none;startFill=0;" edge="1" parent="1" source="GJoGqRPpnO4u1G5O083d-146" target="GJoGqRPpnO4u1G5O083d-124">
          <mxGeometry relative="1" as="geometry">
            <Array as="points">
              <mxPoint x="825" y="384" />
              <mxPoint x="853" y="384" />
              <mxPoint x="853" y="522" />
              <mxPoint x="915" y="522" />
            </Array>
          </mxGeometry>
        </mxCell>
        <mxCell id="GJoGqRPpnO4u1G5O083d-146" value="" style="ellipse;whiteSpace=wrap;html=1;aspect=fixed;fillColor=#FFFFFF;" vertex="1" parent="1">
          <mxGeometry x="813" y="344" width="14" height="14" as="geometry" />
        </mxCell>
        <mxCell id="GJoGqRPpnO4u1G5O083d-147" value="Passport" style="text;html=1;align=center;verticalAlign=middle;resizable=0;points=[];autosize=1;strokeColor=none;fillColor=none;" vertex="1" parent="1">
          <mxGeometry x="783" y="314" width="70" height="30" as="geometry" />
        </mxCell>
        <mxCell id="GJoGqRPpnO4u1G5O083d-148" value="Prefix" style="text;html=1;align=center;verticalAlign=middle;resizable=0;points=[];autosize=1;strokeColor=none;fillColor=none;" vertex="1" parent="1">
          <mxGeometry x="770" y="336" width="50" height="30" as="geometry" />
        </mxCell>
        <mxCell id="GJoGqRPpnO4u1G5O083d-149" style="edgeStyle=orthogonalEdgeStyle;rounded=0;orthogonalLoop=1;jettySize=auto;html=1;exitX=1;exitY=1;exitDx=0;exitDy=0;entryX=0;entryY=0;entryDx=0;entryDy=0;curved=1;endArrow=none;startFill=0;" edge="1" parent="1" source="GJoGqRPpnO4u1G5O083d-150" target="GJoGqRPpnO4u1G5O083d-124">
          <mxGeometry relative="1" as="geometry">
            <mxPoint x="913" y="532" as="targetPoint" />
            <Array as="points">
              <mxPoint x="833" y="394" />
              <mxPoint x="833" y="534" />
            </Array>
          </mxGeometry>
        </mxCell>
        <mxCell id="GJoGqRPpnO4u1G5O083d-150" value="" style="ellipse;whiteSpace=wrap;html=1;aspect=fixed;fillColor=#FFFFFF;" vertex="1" parent="1">
          <mxGeometry x="806" y="382" width="14" height="14" as="geometry" />
        </mxCell>
        <mxCell id="GJoGqRPpnO4u1G5O083d-151" value="Suffix" style="text;html=1;align=center;verticalAlign=middle;resizable=0;points=[];autosize=1;strokeColor=none;fillColor=none;" vertex="1" parent="1">
          <mxGeometry x="764" y="366" width="50" height="30" as="geometry" />
        </mxCell>
        <mxCell id="GJoGqRPpnO4u1G5O083d-152" value="" style="ellipse;whiteSpace=wrap;html=1;aspect=fixed;fillColor=#FFFFFF;" vertex="1" parent="1">
          <mxGeometry x="1153" y="432" width="14" height="14" as="geometry" />
        </mxCell>
        <mxCell id="GJoGqRPpnO4u1G5O083d-153" value="" style="ellipse;whiteSpace=wrap;html=1;aspect=fixed;fillColor=#FFFFFF;" vertex="1" parent="1">
          <mxGeometry x="1183" y="472" width="14" height="14" as="geometry" />
        </mxCell>
        <mxCell id="GJoGqRPpnO4u1G5O083d-154" value="" style="ellipse;whiteSpace=wrap;html=1;aspect=fixed;fillColor=#FFFFFF;" vertex="1" parent="1">
          <mxGeometry x="1183" y="518" width="14" height="14" as="geometry" />
        </mxCell>
        <mxCell id="GJoGqRPpnO4u1G5O083d-155" value="" style="ellipse;whiteSpace=wrap;html=1;aspect=fixed;fillColor=#FFFFFF;" vertex="1" parent="1">
          <mxGeometry x="1145" y="546" width="14" height="14" as="geometry" />
        </mxCell>
        <mxCell id="GJoGqRPpnO4u1G5O083d-156" value="Maiden" style="text;html=1;align=center;verticalAlign=middle;resizable=0;points=[];autosize=1;strokeColor=none;fillColor=none;" vertex="1" parent="1">
          <mxGeometry x="1143" y="406" width="60" height="30" as="geometry" />
        </mxCell>
        <mxCell id="GJoGqRPpnO4u1G5O083d-157" value="Marital" style="text;html=1;align=center;verticalAlign=middle;resizable=0;points=[];autosize=1;strokeColor=none;fillColor=none;" vertex="1" parent="1">
          <mxGeometry x="1187" y="456" width="60" height="30" as="geometry" />
        </mxCell>
        <mxCell id="GJoGqRPpnO4u1G5O083d-158" value="Birthplace" style="text;html=1;align=center;verticalAlign=middle;resizable=0;points=[];autosize=1;strokeColor=none;fillColor=none;" vertex="1" parent="1">
          <mxGeometry x="1153" y="493" width="80" height="30" as="geometry" />
        </mxCell>
        <mxCell id="GJoGqRPpnO4u1G5O083d-159" value="Address" style="text;html=1;align=center;verticalAlign=middle;resizable=0;points=[];autosize=1;strokeColor=none;fillColor=none;" vertex="1" parent="1">
          <mxGeometry x="1150" y="538" width="70" height="30" as="geometry" />
        </mxCell>
        <mxCell id="GJoGqRPpnO4u1G5O083d-160" value="Zip_Code" style="text;html=1;align=center;verticalAlign=middle;resizable=0;points=[];autosize=1;strokeColor=none;fillColor=none;" vertex="1" parent="1">
          <mxGeometry x="814" y="622" width="80" height="30" as="geometry" />
        </mxCell>
        <mxCell id="GJoGqRPpnO4u1G5O083d-161" value="Lat" style="text;html=1;align=center;verticalAlign=middle;resizable=0;points=[];autosize=1;strokeColor=none;fillColor=none;" vertex="1" parent="1">
          <mxGeometry x="874" y="622" width="40" height="30" as="geometry" />
        </mxCell>
        <mxCell id="GJoGqRPpnO4u1G5O083d-162" value="" style="ellipse;whiteSpace=wrap;html=1;aspect=fixed;fillColor=#FFFFFF;" vertex="1" parent="1">
          <mxGeometry x="845" y="612" width="14" height="14" as="geometry" />
        </mxCell>
        <mxCell id="GJoGqRPpnO4u1G5O083d-163" value="" style="ellipse;whiteSpace=wrap;html=1;aspect=fixed;fillColor=#FFFFFF;" vertex="1" parent="1">
          <mxGeometry x="886" y="612" width="14" height="14" as="geometry" />
        </mxCell>
        <mxCell id="GJoGqRPpnO4u1G5O083d-164" value="Lon" style="text;html=1;align=center;verticalAlign=middle;resizable=0;points=[];autosize=1;strokeColor=none;fillColor=none;" vertex="1" parent="1">
          <mxGeometry x="907" y="622" width="40" height="30" as="geometry" />
        </mxCell>
        <mxCell id="GJoGqRPpnO4u1G5O083d-165" value="" style="ellipse;whiteSpace=wrap;html=1;aspect=fixed;fillColor=#FFFFFF;" vertex="1" parent="1">
          <mxGeometry x="923" y="612" width="14" height="14" as="geometry" />
        </mxCell>
        <mxCell id="GJoGqRPpnO4u1G5O083d-166" value="" style="ellipse;whiteSpace=wrap;html=1;aspect=fixed;fillColor=#FFFFFF;" vertex="1" parent="1">
          <mxGeometry x="947" y="656" width="14" height="14" as="geometry" />
        </mxCell>
        <mxCell id="GJoGqRPpnO4u1G5O083d-167" value="" style="ellipse;whiteSpace=wrap;html=1;aspect=fixed;fillColor=#FFFFFF;" vertex="1" parent="1">
          <mxGeometry x="979" y="678" width="14" height="14" as="geometry" />
        </mxCell>
        <mxCell id="GJoGqRPpnO4u1G5O083d-168" value="Healthcare_expenses" style="text;html=1;align=center;verticalAlign=middle;resizable=0;points=[];autosize=1;strokeColor=none;fillColor=none;" vertex="1" parent="1">
          <mxGeometry x="818" y="648" width="140" height="30" as="geometry" />
        </mxCell>
        <mxCell id="GJoGqRPpnO4u1G5O083d-169" value="Healthcare_coverage" style="text;html=1;align=center;verticalAlign=middle;resizable=0;points=[];autosize=1;strokeColor=none;fillColor=none;" vertex="1" parent="1">
          <mxGeometry x="847" y="670" width="140" height="30" as="geometry" />
        </mxCell>
        <mxCell id="GJoGqRPpnO4u1G5O083d-170" style="edgeStyle=orthogonalEdgeStyle;rounded=0;orthogonalLoop=1;jettySize=auto;html=1;exitX=1;exitY=0.5;exitDx=0;exitDy=0;entryX=0;entryY=0.5;entryDx=0;entryDy=0;endArrow=none;startFill=0;" edge="1" parent="1" source="GJoGqRPpnO4u1G5O083d-171" target="GJoGqRPpnO4u1G5O083d-172">
          <mxGeometry relative="1" as="geometry" />
        </mxCell>
        <mxCell id="GJoGqRPpnO4u1G5O083d-171" value="" style="ellipse;whiteSpace=wrap;html=1;aspect=fixed;fillColor=#FFFFFF;" vertex="1" parent="1">
          <mxGeometry x="1163" y="592" width="14" height="14" as="geometry" />
        </mxCell>
        <mxCell id="GJoGqRPpnO4u1G5O083d-172" value="" style="ellipse;whiteSpace=wrap;html=1;aspect=fixed;fillColor=#FFFFFF;" vertex="1" parent="1">
          <mxGeometry x="1233" y="592" width="14" height="14" as="geometry" />
        </mxCell>
        <mxCell id="GJoGqRPpnO4u1G5O083d-173" style="edgeStyle=orthogonalEdgeStyle;rounded=0;orthogonalLoop=1;jettySize=auto;html=1;exitX=1;exitY=0.5;exitDx=0;exitDy=0;entryX=0;entryY=0.5;entryDx=0;entryDy=0;endArrow=none;startFill=0;" edge="1" parent="1" source="GJoGqRPpnO4u1G5O083d-174" target="GJoGqRPpnO4u1G5O083d-175">
          <mxGeometry relative="1" as="geometry" />
        </mxCell>
        <mxCell id="GJoGqRPpnO4u1G5O083d-174" value="" style="ellipse;whiteSpace=wrap;html=1;aspect=fixed;fillColor=#FFFFFF;" vertex="1" parent="1">
          <mxGeometry x="1163" y="642" width="14" height="14" as="geometry" />
        </mxCell>
        <mxCell id="GJoGqRPpnO4u1G5O083d-175" value="" style="ellipse;whiteSpace=wrap;html=1;aspect=fixed;fillColor=#FFFFFF;" vertex="1" parent="1">
          <mxGeometry x="1233" y="642" width="14" height="14" as="geometry" />
        </mxCell>
        <mxCell id="GJoGqRPpnO4u1G5O083d-176" value="Id_Race" style="text;html=1;align=center;verticalAlign=middle;resizable=0;points=[];autosize=1;strokeColor=none;fillColor=none;" vertex="1" parent="1">
          <mxGeometry x="1140" y="568" width="70" height="30" as="geometry" />
        </mxCell>
        <mxCell id="GJoGqRPpnO4u1G5O083d-177" value="Name" style="text;html=1;align=center;verticalAlign=middle;resizable=0;points=[];autosize=1;strokeColor=none;fillColor=none;" vertex="1" parent="1">
          <mxGeometry x="1215" y="568" width="60" height="30" as="geometry" />
        </mxCell>
        <mxCell id="GJoGqRPpnO4u1G5O083d-178" value="Id_Ethnicity" style="text;html=1;align=center;verticalAlign=middle;resizable=0;points=[];autosize=1;strokeColor=none;fillColor=none;" vertex="1" parent="1">
          <mxGeometry x="1128" y="610" width="90" height="30" as="geometry" />
        </mxCell>
        <mxCell id="GJoGqRPpnO4u1G5O083d-179" value="Name" style="text;html=1;align=center;verticalAlign=middle;resizable=0;points=[];autosize=1;strokeColor=none;fillColor=none;" vertex="1" parent="1">
          <mxGeometry x="1215" y="610" width="60" height="30" as="geometry" />
        </mxCell>
        <mxCell id="GJoGqRPpnO4u1G5O083d-180" style="edgeStyle=orthogonalEdgeStyle;rounded=0;orthogonalLoop=1;jettySize=auto;html=1;exitX=0.5;exitY=1;exitDx=0;exitDy=0;entryX=0.5;entryY=0;entryDx=0;entryDy=0;endArrow=none;startFill=0;" edge="1" parent="1" source="GJoGqRPpnO4u1G5O083d-181" target="GJoGqRPpnO4u1G5O083d-17">
          <mxGeometry relative="1" as="geometry" />
        </mxCell>
        <mxCell id="GJoGqRPpnO4u1G5O083d-181" value="" style="ellipse;whiteSpace=wrap;html=1;aspect=fixed;fillColor=#FFFFFF;" vertex="1" parent="1">
          <mxGeometry x="383" y="660" width="14" height="14" as="geometry" />
        </mxCell>
        <mxCell id="GJoGqRPpnO4u1G5O083d-182" value="Base_Cost" style="text;html=1;align=center;verticalAlign=middle;resizable=0;points=[];autosize=1;strokeColor=none;fillColor=none;" vertex="1" parent="1">
          <mxGeometry x="340" y="630" width="80" height="30" as="geometry" />
        </mxCell>
      </root>
    </mxGraphModel>
  </diagram>
</mxfile>
